Coordinates
version=1
nRows=12
nColumns=24
inDegrees=yes

Units are S.I. units (second, meters, Newtons, ...)
Angles are in degrees.

endheader
time	pelvis_tilt	pelvis_list	pelvis_rotation	pelvis_tx	pelvis_ty	pelvis_tz	hip_flexion_r	hip_adduction_r	hip_rotation_r	knee_angle_r	ankle_angle_r	subtalar_angle_r	mtp_angle_r	hip_flexion_l	hip_adduction_l	hip_rotation_l	knee_angle_l	ankle_angle_l	subtalar_angle_l	mtp_angle_l	lumbar_extension	lumbar_bending	lumbar_rotation
      0.96166667	     -0.75815016	     -3.77306077	      4.73947310	     -0.35423818	      1.01108214	      0.35931192	      7.91427669	      6.05640021	     -2.11202149	    -15.52640171	      9.92013641	    -12.57824169	     -5.41937919	     15.48940547	     -4.25802110	      3.53403418	    -67.28821724	      0.46330296	     -9.34091871	     -1.96553731	    -10.24609611	     13.75810161	     -4.40743562
      0.96583333	     -0.74228611	     -3.58542625	      4.63217060	     -0.34972085	      1.01193701	      0.35984861	      7.37075071	      5.91435104	     -2.06398456	    -15.04802962	      9.91008563	    -12.43615339	     -5.40925031	     15.95099808	     -4.05038250	      3.41982695	    -66.85552076	      1.13034005	     -9.06828575	     -2.00731213	    -10.34619640	     13.48490366	     -4.20165816
      0.97000000	     -0.71859784	     -3.39260656	      4.53230194	     -0.34522408	      1.01277098	      0.36036260	      6.82154957	      5.76282079	     -2.02888804	    -14.57146957	      9.89325515	    -12.28039007	     -5.39742604	     16.39713913	     -3.83462540	      3.31837964	    -66.38125765	      1.76498458	     -8.78310082	     -2.04229176	    -10.46166745	     13.20808022	     -4.02678673
      0.97416667	     -0.70683974	     -3.20841759	      4.42889368	     -0.34071817	      1.01353043	      0.36086345	      6.28986660	      5.61580832	     -2.00271262	    -14.10326785	      9.89339691	    -12.11386127	     -5.38296651	     16.84751833	     -3.62933785	      3.21851883	    -65.87148999	      2.37076799	     -8.49351999	     -2.07458588	    -10.55083891	     12.94819151	     -3.85092047
      0.97833333	     -0.66836199	     -3.03041576	      4.32438706	     -0.33619990	      1.01428850	      0.36135911	      5.72845952	      5.47487632	     -1.99433646	    -13.62986908	      9.90256038	    -11.93934336	     -5.36279699	     17.25800713	     -3.44204457	      3.10688675	    -65.32014902	      2.95815234	     -8.18398938	     -2.11475152	    -10.65716190	     12.69156072	     -3.65722229
      0.98250000	     -0.63889424	     -2.86295295	      4.22556306	     -0.33170529	      1.01498307	      0.36182635	      5.18193988	      5.34129090	     -1.98482820	    -13.16117768	      9.90210955	    -11.76878315	     -5.33944411	     17.67435272	     -3.25779526	      3.01888234	    -64.73746095	      3.50586957	     -7.86987460	     -2.15394810	    -10.76485819	     12.45160465	     -3.48367851
      0.98666667	     -0.64506513	     -2.67616854	      4.12488082	     -0.32721292	      1.01559456	      0.36226877	      4.68675609	      5.17759801	     -2.00568463	    -12.71877570	      9.85359647	    -11.59031331	     -5.32524232	     18.11620646	     -3.04642987	      2.92856842	    -64.11070918	      3.99033466	     -7.62549246	     -2.17020362	    -10.81251050	     12.18677768	     -3.38846781
      0.99083333	     -0.59260595	     -2.51595738	      4.02892473	     -0.32272417	      1.01620845	      0.36270281	      4.12220459	      5.04777603	     -2.00157403	    -12.26518170	      9.92184009	    -11.37930910	     -5.29330952	     18.48952736	     -2.87180720	      2.85494515	    -63.46034620	      4.49023203	     -7.26529340	     -2.20633376	    -10.95190872	     11.97003555	     -3.18115420
      0.99500000	     -0.58793365	     -2.36018874	      3.93269378	     -0.31823264	      1.01673211	      0.36310495	      3.61835340	      4.91405338	     -2.01961043	    -11.82374300	      9.90526481	    -11.19404147	     -5.26794235	     18.90462975	     -2.69143927	      2.79224308	    -62.77101324	      4.91511915	     -6.99562316	     -2.23226444	    -11.01260208	     11.75988681	     -3.04604503
      0.99916667	     -0.57438108	     -2.19846411	      3.83520266	     -0.31373726	      1.01720478	      0.36351098	      3.10926108	      4.77323919	     -2.04479945	    -11.39416077	      9.91827835	    -10.99433010	     -5.24019757	     19.29963873	     -2.51048340	      2.72602936	    -62.04969878	      5.31302511	     -6.71903384	     -2.25581782	    -11.08783904	     11.52784968	     -2.91147583
      1.00333333	     -0.53892841	     -2.05133160	      3.74164519	     -0.30924571	      1.01767868	      0.36388343	      2.57430141	      4.64669320	     -2.06970696	    -10.95594039	      9.93998157	    -10.78674941	     -5.20967910	     19.66106204	     -2.34288863	      2.67340809	    -61.29340883	      5.66883322	     -6.46232269	     -2.27926540	    -11.18548396	     11.32453239	     -2.77024595
      1.00750000	     -0.48359393	     -1.91795953	      3.64846097	     -0.30475835	      1.01810730	      0.36426270	      2.01793288	      4.53605968	     -2.09526602	    -10.51605176	     10.00242726	    -10.56071192	     -5.16021641	     19.99701782	     -2.19810348	      2.61958456	    -60.51651033	      5.99992673	     -6.21070634	     -2.31784445	    -11.32432497	     11.11471731	     -2.58304185
